<mxfile host="65bd71144e">
    <diagram id="DyLLSBlJ6kj_zop7XDxZ" name="Page-1">
        <mxGraphModel dx="583" dy="938" grid="1" gridSize="10" guides="1" tooltips="1" connect="1" arrows="1" fold="1" page="1" pageScale="1" pageWidth="850" pageHeight="1100" math="0" shadow="0">
            <root>
                <mxCell id="0"/>
                <mxCell id="1" parent="0"/>
                <mxCell id="2" value="Réveil avec&lt;br&gt;Roxie, Anna, Keith et Steve.&amp;nbsp;" style="rounded=0;whiteSpace=wrap;html=1;" parent="1" vertex="1">
                    <mxGeometry x="465" y="10" width="100" height="50" as="geometry"/>
                </mxCell>
                <mxCell id="3" value="&lt;h1&gt;À ton tour de voter!&lt;/h1&gt;&lt;p&gt;Genre: Horreur/Aventure (Jeu de la mort exemple Squid game)&amp;nbsp;&lt;/p&gt;&lt;p&gt;Inspiration: Your turn to die&amp;nbsp;&lt;/p&gt;&lt;p&gt;Nom: À ton tour de voter!&amp;nbsp;&lt;/p&gt;&lt;p&gt;Couleures:&amp;nbsp;&lt;/p&gt;&lt;p&gt;&lt;span style=&quot;background-color: initial;&quot;&gt;-fond du site:&amp;nbsp;&lt;/span&gt;&lt;span style=&quot;background-color: rgb(27, 26, 33); color: rgb(186, 185, 190); font-family: Consolas, &amp;quot;Courier New&amp;quot;, monospace; font-size: 14px;&quot;&gt;&amp;nbsp;&lt;/span&gt;&lt;span style=&quot;font-family: Consolas, &amp;quot;Courier New&amp;quot;, monospace; font-size: 14px; color: rgb(255, 150, 176);&quot;&gt;#191970&lt;/span&gt;&lt;/p&gt;&lt;p&gt;-fond du contenu:&amp;nbsp;&lt;span style=&quot;font-family: Consolas, &amp;quot;Courier New&amp;quot;, monospace; font-size: 14px; color: rgb(255, 150, 176);&quot;&gt;#15328A&lt;/span&gt;&lt;/p&gt;&lt;p&gt;-police: #FFFFFF&lt;/p&gt;&lt;p&gt;-police titre:&amp;nbsp;&lt;span style=&quot;color: rgb(255, 150, 176); background-color: rgb(27, 26, 33); font-family: Consolas, &amp;quot;Courier New&amp;quot;, monospace; font-size: 14px;&quot;&gt;#FFD700&lt;/span&gt;&lt;/p&gt;&lt;p&gt;-fond des boutons: &lt;span style=&quot;color: rgb(255, 150, 176); background-color: rgb(27, 26, 33); font-family: Consolas, &amp;quot;Courier New&amp;quot;, monospace; font-size: 14px;&quot;&gt;#00008B&lt;/span&gt;&lt;/p&gt;&lt;p&gt;-fond des boutons hover:&amp;nbsp;&lt;span style=&quot;color: rgb(255, 150, 176); background-color: rgb(27, 26, 33); font-family: Consolas, &amp;quot;Courier New&amp;quot;, monospace; font-size: 14px;&quot;&gt;#000080&lt;/span&gt;&lt;/p&gt;&lt;p&gt;-police boutons: #FFFFFF&lt;/p&gt;&lt;p&gt;&lt;span style=&quot;background-color: initial;&quot;&gt;-police boutons hover:&lt;/span&gt;&lt;/p&gt;&lt;span style=&quot;color: rgb(255, 150, 176); font-family: Consolas, &amp;quot;Courier New&amp;quot;, monospace; font-size: 14px; background-color: rgb(27, 26, 33);&quot;&gt;#FFD700&lt;/span&gt;&lt;p&gt;&lt;span style=&quot;background-color: initial;&quot;&gt;&amp;nbsp;&lt;/span&gt;&lt;/p&gt;&lt;p&gt;&lt;br&gt;&lt;/p&gt;" style="text;html=1;strokeColor=none;fillColor=none;spacing=5;spacingTop=-20;whiteSpace=wrap;overflow=hidden;rounded=0;" parent="1" vertex="1">
                    <mxGeometry x="20" y="20" width="270" height="420" as="geometry"/>
                </mxCell>
                <mxCell id="51" style="edgeStyle=none;html=1;exitX=0.5;exitY=1;exitDx=0;exitDy=0;entryX=0.5;entryY=0;entryDx=0;entryDy=0;" parent="1" source="6" edge="1">
                    <mxGeometry relative="1" as="geometry">
                        <mxPoint x="515" y="510" as="targetPoint"/>
                    </mxGeometry>
                </mxCell>
                <mxCell id="6" value="Trouve carte maitrise" style="rounded=1;whiteSpace=wrap;html=1;fillColor=#008a00;fontColor=#ffffff;strokeColor=#005700;" parent="1" vertex="1">
                    <mxGeometry x="480" y="360" width="70" height="40" as="geometry"/>
                </mxCell>
                <mxCell id="251" style="edgeStyle=none;html=1;exitX=1;exitY=0.5;exitDx=0;exitDy=0;entryX=0;entryY=0.5;entryDx=0;entryDy=0;" parent="1" source="10" target="12" edge="1">
                    <mxGeometry relative="1" as="geometry"/>
                </mxCell>
                <mxCell id="252" style="edgeStyle=none;html=1;exitX=0;exitY=0.5;exitDx=0;exitDy=0;entryX=1;entryY=0.5;entryDx=0;entryDy=0;" parent="1" source="10" target="11" edge="1">
                    <mxGeometry relative="1" as="geometry"/>
                </mxCell>
                <mxCell id="10" value="&lt;br&gt;Russian&lt;br&gt;Roulette avec liquides inconnus. Anna&lt;br&gt;n'ait &lt;br&gt;pas capable &lt;br&gt;de le finir" style="rhombus;whiteSpace=wrap;html=1;" parent="1" vertex="1">
                    <mxGeometry x="438.75" y="450" width="152.5" height="152.5" as="geometry"/>
                </mxCell>
                <mxCell id="55" style="edgeStyle=none;html=1;exitX=0.5;exitY=1;exitDx=0;exitDy=0;entryX=0.5;entryY=0;entryDx=0;entryDy=0;" parent="1" source="11" target="14" edge="1">
                    <mxGeometry relative="1" as="geometry">
                        <mxPoint x="367.1500000000001" y="622.6600000000001" as="targetPoint"/>
                    </mxGeometry>
                </mxCell>
                <mxCell id="11" value="Aider à le&lt;br&gt;finir" style="rounded=0;whiteSpace=wrap;html=1;" parent="1" vertex="1">
                    <mxGeometry x="332.5" y="506.25" width="70" height="40" as="geometry"/>
                </mxCell>
                <mxCell id="12" value="Laisser quelqu'un d'autre le faire" style="rounded=0;whiteSpace=wrap;html=1;" parent="1" vertex="1">
                    <mxGeometry x="640" y="491.25" width="70" height="70" as="geometry"/>
                </mxCell>
                <mxCell id="58" style="edgeStyle=none;html=1;exitX=0.5;exitY=1;exitDx=0;exitDy=0;entryX=0.5;entryY=0;entryDx=0;entryDy=0;" parent="1" target="31" edge="1">
                    <mxGeometry relative="1" as="geometry">
                        <mxPoint x="367.5" y="690" as="sourcePoint"/>
                    </mxGeometry>
                </mxCell>
                <mxCell id="14" value="Forcé à faire se voter entre vous pour tuer quelqu'un + introduction des rôle des cartes" style="rounded=0;whiteSpace=wrap;html=1;" parent="1" vertex="1">
                    <mxGeometry x="320" y="580" width="90" height="110" as="geometry"/>
                </mxCell>
                <mxCell id="21" value="Soudaine méchancité, tout le monde pense que tu es sacrifice, vote pour toi, tout le monde meurt." style="rounded=0;whiteSpace=wrap;html=1;fillColor=#a20025;fontColor=#ffffff;strokeColor=#6F0000;" parent="1" vertex="1">
                    <mxGeometry x="332.5" y="960" width="70" height="170" as="geometry"/>
                </mxCell>
                <mxCell id="264" style="edgeStyle=none;html=1;exitX=0.5;exitY=1;exitDx=0;exitDy=0;entryX=0.5;entryY=0;entryDx=0;entryDy=0;" parent="1" source="22" target="34" edge="1">
                    <mxGeometry relative="1" as="geometry"/>
                </mxCell>
                <mxCell id="22" value="Tout le monde croit, décide vote selon ton choix" style="rounded=0;whiteSpace=wrap;html=1;" parent="1" vertex="1">
                    <mxGeometry x="230" y="960" width="70" height="170" as="geometry"/>
                </mxCell>
                <mxCell id="248" style="edgeStyle=none;html=1;exitX=0;exitY=1;exitDx=0;exitDy=0;entryX=0.5;entryY=0;entryDx=0;entryDy=0;" parent="1" source="31" target="22" edge="1">
                    <mxGeometry relative="1" as="geometry"/>
                </mxCell>
                <mxCell id="255" value="Dévoiler ton identité" style="edgeLabel;html=1;align=center;verticalAlign=middle;resizable=0;points=[];" parent="248" vertex="1" connectable="0">
                    <mxGeometry x="-0.2746" y="2" relative="1" as="geometry">
                        <mxPoint as="offset"/>
                    </mxGeometry>
                </mxCell>
                <mxCell id="249" style="edgeStyle=none;html=1;exitX=0.5;exitY=1;exitDx=0;exitDy=0;entryX=0.5;entryY=0;entryDx=0;entryDy=0;" parent="1" source="31" target="21" edge="1">
                    <mxGeometry relative="1" as="geometry"/>
                </mxCell>
                <mxCell id="254" value="Antagoniser Steve" style="edgeLabel;html=1;align=center;verticalAlign=middle;resizable=0;points=[];" parent="249" vertex="1" connectable="0">
                    <mxGeometry x="-0.219" y="-1" relative="1" as="geometry">
                        <mxPoint as="offset"/>
                    </mxGeometry>
                </mxCell>
                <mxCell id="250" style="edgeStyle=none;html=1;exitX=1;exitY=1;exitDx=0;exitDy=0;entryX=0.5;entryY=0;entryDx=0;entryDy=0;" parent="1" source="31" target="85" edge="1">
                    <mxGeometry relative="1" as="geometry"/>
                </mxCell>
                <mxCell id="253" value="Si tu as Alice" style="edgeLabel;html=1;align=center;verticalAlign=middle;resizable=0;points=[];" parent="250" vertex="1" connectable="0">
                    <mxGeometry x="-0.2303" relative="1" as="geometry">
                        <mxPoint as="offset"/>
                    </mxGeometry>
                </mxCell>
                <mxCell id="31" value="Steve ment et dit &lt;br&gt;qu'il a carte &lt;br&gt;maitrise" style="rhombus;whiteSpace=wrap;html=1;" parent="1" vertex="1">
                    <mxGeometry x="305" y="730" width="125" height="125" as="geometry"/>
                </mxCell>
                <mxCell id="34" value="Qui vote tu?" style="rhombus;whiteSpace=wrap;html=1;" parent="1" vertex="1">
                    <mxGeometry x="222.5" y="1170" width="85" height="85" as="geometry"/>
                </mxCell>
                <mxCell id="45" value="Anna et Keith meurt. Vous pouvez partir!" style="rounded=0;whiteSpace=wrap;html=1;fillColor=#008a00;fontColor=#ffffff;strokeColor=#005700;" parent="1" vertex="1">
                    <mxGeometry x="122.5" y="1370" width="60" height="150" as="geometry"/>
                </mxCell>
                <mxCell id="46" value="Anna est le sacrifice, tout le monde meurt sauf elle" style="rounded=0;whiteSpace=wrap;html=1;fillColor=#a20025;fontColor=#ffffff;strokeColor=#6F0000;" parent="1" vertex="1">
                    <mxGeometry x="197.5" y="1370" width="60" height="150" as="geometry"/>
                </mxCell>
                <mxCell id="47" value="Roxie et Anna meurt. Vous pouvez partir!" style="rounded=0;whiteSpace=wrap;html=1;fillColor=#008a00;fontColor=#ffffff;strokeColor=#005700;" parent="1" vertex="1">
                    <mxGeometry x="270" y="1370" width="60" height="150" as="geometry"/>
                </mxCell>
                <mxCell id="48" value="Steve et Anna meurt. Vous pouvez partir!" style="rounded=0;whiteSpace=wrap;html=1;fillColor=#008a00;fontColor=#ffffff;strokeColor=#005700;" parent="1" vertex="1">
                    <mxGeometry x="345" y="1370" width="57.5" height="150" as="geometry"/>
                </mxCell>
                <mxCell id="80" value="Que veut tu inspecter?" style="rhombus;whiteSpace=wrap;html=1;" parent="1" vertex="1">
                    <mxGeometry x="475" y="150" width="80" height="80" as="geometry"/>
                </mxCell>
                <mxCell id="83" value="&lt;span style=&quot;color: rgb(240, 240, 240);&quot;&gt;Trouve une porte :&amp;nbsp;&lt;/span&gt;Tu trouve Alice, un autre &quot;joueur&quot; qui a été abandonné par son ancient groupe. Remerciment et loyauté envers toi&amp;nbsp;" style="rounded=1;whiteSpace=wrap;html=1;fillColor=#1ba1e2;fontColor=#ffffff;strokeColor=#006EAF;" parent="1" vertex="1">
                    <mxGeometry x="720" y="180" width="72.5" height="220" as="geometry"/>
                </mxCell>
                <mxCell id="85" value="Il révèle la conversation qu'il a entendu entre Steve et Anna, révélant son mensonge. Vous voter pour tuer au hasard autre qu'Anna et vous partez" style="rounded=0;whiteSpace=wrap;html=1;fillColor=#1ba1e2;fontColor=#ffffff;strokeColor=#006EAF;" parent="1" vertex="1">
                    <mxGeometry x="425" y="960" width="70" height="220" as="geometry"/>
                </mxCell>
                <mxCell id="218" value="" style="endArrow=classic;html=1;exitX=0.5;exitY=1;exitDx=0;exitDy=0;entryX=0.5;entryY=0;entryDx=0;entryDy=0;" parent="1" source="2" target="80" edge="1">
                    <mxGeometry width="50" height="50" relative="1" as="geometry">
                        <mxPoint x="515" y="130" as="sourcePoint"/>
                        <mxPoint x="780" y="240" as="targetPoint"/>
                    </mxGeometry>
                </mxCell>
                <mxCell id="219" value="" style="endArrow=classic;html=1;exitX=1;exitY=0.5;exitDx=0;exitDy=0;entryX=0;entryY=0.5;entryDx=0;entryDy=0;" parent="1" source="80" edge="1">
                    <mxGeometry width="50" height="50" relative="1" as="geometry">
                        <mxPoint x="730" y="290" as="sourcePoint"/>
                        <mxPoint x="722.5" y="190" as="targetPoint"/>
                    </mxGeometry>
                </mxCell>
                <mxCell id="238" value="&lt;span style=&quot;font-size: 12px; background-color: rgb(42, 37, 47);&quot;&gt;Le cabinet&lt;/span&gt;" style="edgeLabel;html=1;align=center;verticalAlign=middle;resizable=0;points=[];" parent="219" vertex="1" connectable="0">
                    <mxGeometry x="-0.1642" y="3" relative="1" as="geometry">
                        <mxPoint as="offset"/>
                    </mxGeometry>
                </mxCell>
                <mxCell id="220" value="" style="endArrow=classic;html=1;exitX=0.5;exitY=1;exitDx=0;exitDy=0;entryX=0.5;entryY=0;entryDx=0;entryDy=0;" parent="1" source="80" target="6" edge="1">
                    <mxGeometry width="50" height="50" relative="1" as="geometry">
                        <mxPoint x="730" y="290" as="sourcePoint"/>
                        <mxPoint x="515" y="270" as="targetPoint"/>
                    </mxGeometry>
                </mxCell>
                <mxCell id="239" value="&lt;span style=&quot;font-size: 12px; background-color: rgb(42, 37, 47);&quot;&gt;Les bouteilles d'alcool&lt;/span&gt;" style="edgeLabel;html=1;align=center;verticalAlign=middle;resizable=0;points=[];" parent="220" vertex="1" connectable="0">
                    <mxGeometry x="0.1846" relative="1" as="geometry">
                        <mxPoint as="offset"/>
                    </mxGeometry>
                </mxCell>
                <mxCell id="224" value="" style="endArrow=classic;html=1;entryX=1;entryY=0.25;entryDx=0;entryDy=0;" parent="1" target="6" edge="1">
                    <mxGeometry width="50" height="50" relative="1" as="geometry">
                        <mxPoint x="720" y="370" as="sourcePoint"/>
                        <mxPoint x="780" y="240" as="targetPoint"/>
                    </mxGeometry>
                </mxCell>
                <mxCell id="241" style="edgeStyle=none;html=1;exitX=0.5;exitY=1;exitDx=0;exitDy=0;entryX=0.5;entryY=0;entryDx=0;entryDy=0;" parent="1" source="12" target="242" edge="1">
                    <mxGeometry relative="1" as="geometry">
                        <mxPoint x="675" y="690" as="sourcePoint"/>
                        <mxPoint x="690" y="730" as="targetPoint"/>
                    </mxGeometry>
                </mxCell>
                <mxCell id="242" value="&lt;span style=&quot;color: rgb(240, 240, 240);&quot;&gt;Forcé à faire se voter entre vous pour tuer quelqu'un + introduction des rôle des cartes&lt;/span&gt;&lt;br&gt;&lt;br&gt;Vote immédiat sans conversation, tout le monde meurt." style="rounded=0;whiteSpace=wrap;html=1;fillColor=#008a00;fontColor=#ffffff;strokeColor=#005700;" parent="1" vertex="1">
                    <mxGeometry x="625" y="600" width="100" height="200" as="geometry"/>
                </mxCell>
                <mxCell id="246" value="" style="endArrow=none;html=1;" parent="1" edge="1">
                    <mxGeometry width="50" height="50" relative="1" as="geometry">
                        <mxPoint x="152.5" y="1290" as="sourcePoint"/>
                        <mxPoint x="372.5" y="1290" as="targetPoint"/>
                    </mxGeometry>
                </mxCell>
                <mxCell id="247" value="" style="endArrow=classic;html=1;entryX=0.5;entryY=0;entryDx=0;entryDy=0;" parent="1" target="45" edge="1">
                    <mxGeometry width="50" height="50" relative="1" as="geometry">
                        <mxPoint x="152.5" y="1290" as="sourcePoint"/>
                        <mxPoint x="692.5" y="1520" as="targetPoint"/>
                    </mxGeometry>
                </mxCell>
                <mxCell id="259" value="Keith" style="edgeLabel;html=1;align=center;verticalAlign=middle;resizable=0;points=[];" parent="247" vertex="1" connectable="0">
                    <mxGeometry x="-0.475" y="3" relative="1" as="geometry">
                        <mxPoint as="offset"/>
                    </mxGeometry>
                </mxCell>
                <mxCell id="256" value="" style="endArrow=classic;html=1;entryX=0.5;entryY=0;entryDx=0;entryDy=0;" parent="1" target="48" edge="1">
                    <mxGeometry width="50" height="50" relative="1" as="geometry">
                        <mxPoint x="372.5" y="1290" as="sourcePoint"/>
                        <mxPoint x="692.5" y="1290" as="targetPoint"/>
                    </mxGeometry>
                </mxCell>
                <mxCell id="262" value="Steve" style="edgeLabel;html=1;align=center;verticalAlign=middle;resizable=0;points=[];" parent="256" vertex="1" connectable="0">
                    <mxGeometry x="0.4004" y="1" relative="1" as="geometry">
                        <mxPoint as="offset"/>
                    </mxGeometry>
                </mxCell>
                <mxCell id="257" value="" style="endArrow=classic;html=1;entryX=0.5;entryY=0;entryDx=0;entryDy=0;" parent="1" target="46" edge="1">
                    <mxGeometry width="50" height="50" relative="1" as="geometry">
                        <mxPoint x="227.5" y="1290" as="sourcePoint"/>
                        <mxPoint x="692.5" y="1290" as="targetPoint"/>
                    </mxGeometry>
                </mxCell>
                <mxCell id="260" value="Anna" style="edgeLabel;html=1;align=center;verticalAlign=middle;resizable=0;points=[];" parent="257" vertex="1" connectable="0">
                    <mxGeometry x="0.4" relative="1" as="geometry">
                        <mxPoint as="offset"/>
                    </mxGeometry>
                </mxCell>
                <mxCell id="258" value="" style="endArrow=classic;html=1;entryX=0.5;entryY=0;entryDx=0;entryDy=0;" parent="1" target="47" edge="1">
                    <mxGeometry width="50" height="50" relative="1" as="geometry">
                        <mxPoint x="300.5" y="1290" as="sourcePoint"/>
                        <mxPoint x="692.5" y="1290" as="targetPoint"/>
                    </mxGeometry>
                </mxCell>
                <mxCell id="261" value="Roxie" style="edgeLabel;html=1;align=center;verticalAlign=middle;resizable=0;points=[];" parent="258" vertex="1" connectable="0">
                    <mxGeometry x="-0.3252" y="1" relative="1" as="geometry">
                        <mxPoint as="offset"/>
                    </mxGeometry>
                </mxCell>
                <mxCell id="263" value="" style="endArrow=none;html=1;entryX=0.5;entryY=1;entryDx=0;entryDy=0;" parent="1" target="34" edge="1">
                    <mxGeometry width="50" height="50" relative="1" as="geometry">
                        <mxPoint x="265.5" y="1290" as="sourcePoint"/>
                        <mxPoint x="692.5" y="1290" as="targetPoint"/>
                    </mxGeometry>
                </mxCell>
                <mxCell id="265" value="&amp;nbsp;Exploration dans un bar" style="rounded=0;whiteSpace=wrap;html=1;" vertex="1" parent="1">
                    <mxGeometry x="465" y="80" width="100" height="40" as="geometry"/>
                </mxCell>
            </root>
        </mxGraphModel>
    </diagram>
</mxfile>